<svg xmlns="http://www.w3.org/2000/svg" xmlns:xlink="http://www.w3.org/1999/xlink" width="500" zoomAndPan="magnify" viewBox="0 0 375 374.999991" height="500" preserveAspectRatio="xMidYMid meet" version="1.0"><defs><g/><clipPath id="00efdd5849"><rect x="0" width="121" y="0" height="199"/></clipPath><clipPath id="78b31ad67b"><path d="M 154.359375 121.167969 L 190.507812 121.167969 L 190.507812 146.660156 L 154.359375 146.660156 Z M 154.359375 121.167969 " clip-rule="nonzero"/></clipPath><clipPath id="50b9d0766b"><path d="M 0.359375 0.167969 L 36.507812 0.167969 L 36.507812 25.660156 L 0.359375 25.660156 Z M 0.359375 0.167969 " clip-rule="nonzero"/></clipPath><clipPath id="2241752c39"><rect x="0" width="37" y="0" height="26"/></clipPath><clipPath id="c2b6001366"><path d="M 0.199219 11 L 122.359375 11 L 122.359375 178 L 0.199219 178 Z M 0.199219 11 " clip-rule="nonzero"/></clipPath><clipPath id="88c88c47b6"><rect x="0" width="123" y="0" height="199"/></clipPath><clipPath id="dc6e355c2c"><path d="M 294.035156 207.6875 L 375 207.6875 L 375 266.664062 L 294.035156 266.664062 Z M 294.035156 207.6875 " clip-rule="nonzero"/></clipPath><clipPath id="1553e62f9f"><path d="M 0.0351562 0.6875 L 81 0.6875 L 81 59.664062 L 0.0351562 59.664062 Z M 0.0351562 0.6875 " clip-rule="nonzero"/></clipPath><clipPath id="9941bdaf67"><rect x="0" width="81" y="0" height="60"/></clipPath></defs><rect x="-37.5" width="450" fill="#ffffff" y="-37.499999" height="449.999989" fill-opacity="1"/><rect x="-37.5" width="450" fill="#000000" y="-37.499999" height="449.999989" fill-opacity="1"/><g transform="matrix(1, 0, 0, 1, 146, 90)"><g clip-path="url(#00efdd5849)"><g fill="#ffffff" fill-opacity="1"><g transform="translate(0.89353, 143.430555)"><g><path d="M 106.765625 -1.46875 L 108.515625 -1.46875 L 108.515625 0 L 76.59375 0 L 76.59375 -1.46875 L 78.5 -1.46875 C 80.9375 -1.46875 83.054688 -2.320312 84.859375 -4.03125 C 86.671875 -5.738281 87.675781 -7.859375 87.875 -10.390625 L 87.875 -48.46875 L 31.1875 -48.46875 L 31.1875 -10.25 C 31.1875 3.414062 27.867188 12.59375 21.234375 17.28125 C 18.210938 19.425781 14.304688 21.035156 9.515625 22.109375 L 8.78125 20.796875 C 13.175781 18.453125 16.421875 14.835938 18.515625 9.953125 C 20.617188 5.078125 21.671875 -1.65625 21.671875 -10.25 L 21.671875 -91.96875 C 21.671875 -94.507812 20.742188 -96.65625 18.890625 -98.40625 C 17.035156 -100.164062 14.835938 -101.046875 12.296875 -101.046875 L 10.546875 -101.046875 L 10.546875 -102.515625 L 42.46875 -102.515625 L 42.46875 -101.046875 L 40.5625 -101.046875 C 38.03125 -101.046875 35.859375 -100.164062 34.046875 -98.40625 C 32.242188 -96.65625 31.289062 -94.507812 31.1875 -91.96875 L 31.1875 -52.875 L 87.875 -52.875 L 87.875 -89.34375 C 87.96875 -101.832031 90.75 -110.519531 96.21875 -115.40625 C 99.539062 -118.332031 104.03125 -120.429688 109.6875 -121.703125 L 110.421875 -120.390625 C 106.023438 -118.046875 102.753906 -114.429688 100.609375 -109.546875 C 98.460938 -104.660156 97.390625 -97.925781 97.390625 -89.34375 L 97.390625 -10.6875 C 97.390625 -8.15625 98.289062 -5.984375 100.09375 -4.171875 C 101.90625 -2.367188 104.128906 -1.46875 106.765625 -1.46875 Z M 106.765625 -1.46875 "/></g></g></g></g></g><g clip-path="url(#78b31ad67b)"><g transform="matrix(1, 0, 0, 1, 154, 121)"><g clip-path="url(#2241752c39)"><g clip-path="url(#50b9d0766b)"><path fill="#000000" d="M 0.359375 0.167969 L 36.503906 0.167969 L 36.503906 25.660156 L 0.359375 25.660156 Z M 0.359375 0.167969 " fill-opacity="1" fill-rule="nonzero"/></g></g></g></g><g transform="matrix(1, 0, 0, 1, 115, 79)"><g clip-path="url(#88c88c47b6)"><g clip-path="url(#c2b6001366)"><g fill="#000000" fill-opacity="1"><g transform="translate(1.763073, 144.203339)"><g><path d="M 106.765625 -11.074219 L 118.132812 -11.074219 L 118.132812 9.613281 L 66.984375 9.613281 L 66.984375 -11.074219 L 78.5 -11.074219 L 78.503906 -11.070312 C 78.449219 -11.0625 78.394531 -11.046875 78.335938 -11.023438 C 78.285156 -11 78.242188 -10.980469 78.207031 -10.957031 C 78.214844 -10.960938 78.234375 -10.980469 78.265625 -11.011719 L 78.28125 -11 C 78.273438 -10.980469 78.265625 -10.96875 78.265625 -10.960938 C 78.277344 -11 78.285156 -11.058594 78.289062 -11.136719 L 87.871094 -10.398438 L 78.261719 -10.398438 L 78.261719 -48.476562 L 87.871094 -48.476562 L 87.871094 -38.863281 L 31.195312 -38.863281 L 31.195312 -48.476562 L 40.804688 -48.476562 L 40.804688 -10.25 C 40.804688 6.738281 36.128906 18.53125 26.777344 25.132812 C 22.714844 28.015625 17.664062 30.136719 11.625 31.492188 L 4.609375 33.066406 L -4.363281 16.917969 L 4.265625 12.316406 C 6.675781 11.03125 8.484375 8.980469 9.695312 6.164062 C 11.273438 2.492188 12.0625 -2.980469 12.0625 -10.25 L 12.0625 -91.972656 C 12.0625 -91.757812 12.136719 -91.578125 12.28125 -91.441406 L 12.300781 -91.441406 L 0.933594 -91.441406 L 0.933594 -112.128906 L 52.082031 -112.128906 L 52.082031 -91.441406 L 40.566406 -91.441406 C 40.632812 -91.441406 40.695312 -91.472656 40.753906 -91.527344 C 40.78125 -91.558594 40.796875 -91.582031 40.800781 -91.605469 L 31.195312 -91.972656 L 40.804688 -91.972656 L 40.804688 -52.871094 L 31.195312 -52.871094 L 31.195312 -62.480469 L 87.871094 -62.480469 L 87.871094 -52.871094 L 78.261719 -52.871094 L 78.261719 -89.335938 C 78.382812 -104.722656 82.234375 -115.804688 89.820312 -122.574219 C 94.402344 -126.617188 100.324219 -129.453125 107.59375 -131.082031 L 114.605469 -132.65625 L 123.578125 -116.507812 L 114.949219 -111.90625 C 112.511719 -110.605469 110.667969 -108.53125 109.410156 -105.675781 C 107.808594 -102.027344 107.003906 -96.582031 107.003906 -89.335938 L 107.003906 -10.691406 C 107.003906 -10.808594 106.96875 -10.898438 106.898438 -10.96875 L 106.898438 -10.964844 C 106.851562 -10.996094 106.800781 -11.023438 106.742188 -11.046875 C 106.695312 -11.066406 106.65625 -11.078125 106.625 -11.082031 C 106.648438 -11.078125 106.695312 -11.074219 106.765625 -11.074219 Z M 106.765625 8.148438 C 101.476562 8.148438 96.988281 6.304688 93.304688 2.621094 C 89.621094 -1.0625 87.78125 -5.5 87.78125 -10.691406 L 87.78125 -89.335938 C 87.78125 -99.277344 89.125 -107.304688 91.816406 -113.417969 C 94.859375 -120.332031 99.554688 -125.480469 105.902344 -128.867188 L 110.425781 -120.386719 L 102.023438 -115.71875 L 101.292969 -117.035156 L 109.695312 -121.703125 L 111.796875 -112.324219 C 107.738281 -111.414062 104.679688 -110.054688 102.621094 -108.238281 C 101.191406 -106.957031 100.046875 -104.980469 99.1875 -102.296875 C 98.09375 -98.878906 97.527344 -94.5625 97.484375 -89.335938 L 97.484375 -43.257812 L 21.582031 -43.257812 L 21.582031 -92.160156 L 21.589844 -92.34375 C 21.785156 -97.441406 23.707031 -101.761719 27.347656 -105.304688 C 31.019531 -108.878906 35.425781 -110.664062 40.566406 -110.664062 L 42.472656 -110.664062 L 42.472656 -101.054688 L 32.859375 -101.054688 L 32.859375 -102.519531 L 42.472656 -102.519531 L 42.472656 -92.90625 L 10.542969 -92.90625 L 10.542969 -102.519531 L 20.15625 -102.519531 L 20.15625 -101.054688 L 10.542969 -101.054688 L 10.542969 -110.664062 L 12.300781 -110.664062 C 17.394531 -110.664062 21.792969 -108.910156 25.503906 -105.394531 C 29.359375 -101.742188 31.285156 -97.269531 31.285156 -91.972656 L 31.285156 -10.25 C 31.285156 -0.339844 29.976562 7.660156 27.355469 13.753906 C 24.371094 20.703125 19.6875 25.875 13.308594 29.277344 L 8.789062 20.796875 L 17.1875 16.128906 L 17.921875 17.445312 L 9.519531 22.113281 L 7.414062 12.738281 C 10.941406 11.945312 13.703125 10.84375 15.691406 9.429688 C 17.367188 8.246094 18.691406 6.308594 19.667969 3.613281 C 20.945312 0.0820312 21.582031 -4.539062 21.582031 -10.25 L 21.582031 -58.089844 L 97.484375 -58.089844 L 97.484375 -10.027344 L 97.457031 -9.660156 C 97.070312 -4.65625 95.078125 -0.453125 91.476562 2.953125 C 87.816406 6.417969 83.492188 8.148438 78.5 8.148438 L 76.597656 8.148438 L 76.597656 -1.464844 L 86.207031 -1.464844 L 86.207031 0 L 76.597656 0 L 76.597656 -9.613281 L 108.523438 -9.613281 L 108.523438 0 L 98.910156 0 L 98.910156 -1.464844 L 108.523438 -1.464844 L 108.523438 8.148438 Z M 106.765625 8.148438 "/></g></g></g></g><g fill="#e74528" fill-opacity="1"><g transform="translate(1.763073, 144.203339)"><g><path d="M 106.765625 -1.46875 L 108.515625 -1.46875 L 108.515625 0 L 76.59375 0 L 76.59375 -1.46875 L 78.5 -1.46875 C 80.9375 -1.46875 83.054688 -2.320312 84.859375 -4.03125 C 86.671875 -5.738281 87.675781 -7.859375 87.875 -10.390625 L 87.875 -48.46875 L 31.1875 -48.46875 L 31.1875 -10.25 C 31.1875 3.414062 27.867188 12.59375 21.234375 17.28125 C 18.210938 19.425781 14.304688 21.035156 9.515625 22.109375 L 8.78125 20.796875 C 13.175781 18.453125 16.421875 14.835938 18.515625 9.953125 C 20.617188 5.078125 21.671875 -1.65625 21.671875 -10.25 L 21.671875 -91.96875 C 21.671875 -94.507812 20.742188 -96.65625 18.890625 -98.40625 C 17.035156 -100.164062 14.835938 -101.046875 12.296875 -101.046875 L 10.546875 -101.046875 L 10.546875 -102.515625 L 42.46875 -102.515625 L 42.46875 -101.046875 L 40.5625 -101.046875 C 38.03125 -101.046875 35.859375 -100.164062 34.046875 -98.40625 C 32.242188 -96.65625 31.289062 -94.507812 31.1875 -91.96875 L 31.1875 -52.875 L 87.875 -52.875 L 87.875 -89.34375 C 87.96875 -101.832031 90.75 -110.519531 96.21875 -115.40625 C 99.539062 -118.332031 104.03125 -120.429688 109.6875 -121.703125 L 110.421875 -120.390625 C 106.023438 -118.046875 102.753906 -114.429688 100.609375 -109.546875 C 98.460938 -104.660156 97.390625 -97.925781 97.390625 -89.34375 L 97.390625 -10.6875 C 97.390625 -8.15625 98.289062 -5.984375 100.09375 -4.171875 C 101.90625 -2.367188 104.128906 -1.46875 106.765625 -1.46875 Z M 106.765625 -1.46875 "/></g></g></g></g></g><g clip-path="url(#dc6e355c2c)"><g transform="matrix(1, 0, 0, 1, 294, 207)"><g clip-path="url(#9941bdaf67)"><g clip-path="url(#1553e62f9f)"><path fill="#000000" d="M 0.0351562 0.6875 L 149.542969 0.6875 L 149.542969 59.664062 L 0.0351562 59.664062 Z M 0.0351562 0.6875 " fill-opacity="1" fill-rule="nonzero"/></g></g></g></g><g fill="#ffffff" fill-opacity="1"><g transform="translate(111.33817, 281.420108)"><g><path d="M 0.96875 0 L 0.96875 -9.453125 L 2.703125 -9.453125 L 2.703125 -5.53125 L 7.171875 -5.53125 L 7.171875 -9.453125 L 8.921875 -9.453125 L 8.921875 0 L 7.171875 0 L 7.171875 -4.015625 L 2.703125 -4.015625 L 2.703125 0 Z M 0.96875 0 "/></g></g></g><g fill="#ffffff" fill-opacity="1"><g transform="translate(130.631752, 281.420108)"><g><path d="M -0.140625 0 L 3.90625 -9.453125 L 5.359375 -9.453125 L 9.234375 0 L 7.484375 0 L 6.625 -2.15625 L 2.5 -2.15625 L 1.625 0 Z M 3.109375 -3.609375 L 6.078125 -3.609375 L 4.609375 -7.328125 Z M 3.109375 -3.609375 "/></g></g></g><g fill="#ffffff" fill-opacity="1"><g transform="translate(149.20709, 281.420108)"><g><path d="M 8.4375 -1.65625 L 8.84375 -0.3125 C 8.664062 -0.175781 8.445312 -0.0703125 8.1875 0 C 7.925781 0.0820312 7.65625 0.125 7.375 0.125 C 6.382812 0.125 5.601562 -0.316406 5.03125 -1.203125 L 3.65625 -3.296875 C 3.519531 -3.523438 3.375 -3.679688 3.21875 -3.765625 C 3.070312 -3.859375 2.910156 -3.90625 2.734375 -3.90625 L 2.65625 -3.90625 L 2.65625 0 L 0.96875 0 L 0.96875 -9.453125 L 3.90625 -9.453125 C 5.113281 -9.453125 6.023438 -9.203125 6.640625 -8.703125 C 7.253906 -8.203125 7.5625 -7.519531 7.5625 -6.65625 C 7.5625 -6.132812 7.445312 -5.679688 7.21875 -5.296875 C 6.988281 -4.921875 6.671875 -4.625 6.265625 -4.40625 C 5.867188 -4.1875 5.414062 -4.046875 4.90625 -3.984375 C 5.175781 -3.835938 5.421875 -3.597656 5.640625 -3.265625 L 6.390625 -2.15625 C 6.585938 -1.875 6.769531 -1.675781 6.9375 -1.5625 C 7.113281 -1.457031 7.332031 -1.40625 7.59375 -1.40625 C 7.90625 -1.40625 8.1875 -1.488281 8.4375 -1.65625 Z M 3.796875 -8.046875 L 2.65625 -8.046875 L 2.65625 -5.265625 L 3.71875 -5.265625 C 4.445312 -5.265625 4.984375 -5.375 5.328125 -5.59375 C 5.671875 -5.8125 5.84375 -6.164062 5.84375 -6.65625 C 5.84375 -7.582031 5.160156 -8.046875 3.796875 -8.046875 Z M 3.796875 -8.046875 "/></g></g></g><g fill="#e74528" fill-opacity="1"><g transform="translate(166.978795, 281.420108)"><g><path d="M 1.046875 -2.84375 L 0.765625 -9.84375 L 2.625 -9.84375 L 2.15625 -2.84375 Z M 1.59375 0.125 C 1.28125 0.125 1.023438 0.03125 0.828125 -0.15625 C 0.640625 -0.351562 0.546875 -0.597656 0.546875 -0.890625 C 0.546875 -1.191406 0.640625 -1.4375 0.828125 -1.625 C 1.023438 -1.820312 1.28125 -1.921875 1.59375 -1.921875 C 1.914062 -1.921875 2.171875 -1.820312 2.359375 -1.625 C 2.554688 -1.4375 2.65625 -1.191406 2.65625 -0.890625 C 2.65625 -0.597656 2.554688 -0.351562 2.359375 -0.15625 C 2.171875 0.03125 1.914062 0.125 1.59375 0.125 Z M 1.59375 0.125 "/></g></g></g><g fill="#ffffff" fill-opacity="1"><g transform="translate(179.611607, 281.420108)"><g><path d="M 0.96875 0 L 0.96875 -9.453125 L 2.703125 -9.453125 L 2.703125 -5.53125 L 7.171875 -5.53125 L 7.171875 -9.453125 L 8.921875 -9.453125 L 8.921875 0 L 7.171875 0 L 7.171875 -4.015625 L 2.703125 -4.015625 L 2.703125 0 Z M 0.96875 0 "/></g></g></g><g fill="#ffffff" fill-opacity="1"><g transform="translate(198.905188, 281.420108)"><g><path d="M -0.140625 0 L 3.90625 -9.453125 L 5.359375 -9.453125 L 9.234375 0 L 7.484375 0 L 6.625 -2.15625 L 2.5 -2.15625 L 1.625 0 Z M 3.109375 -3.609375 L 6.078125 -3.609375 L 4.609375 -7.328125 Z M 3.109375 -3.609375 "/></g></g></g><g fill="#ffffff" fill-opacity="1"><g transform="translate(217.480527, 281.420108)"><g><path d="M 8.4375 -1.65625 L 8.84375 -0.3125 C 8.664062 -0.175781 8.445312 -0.0703125 8.1875 0 C 7.925781 0.0820312 7.65625 0.125 7.375 0.125 C 6.382812 0.125 5.601562 -0.316406 5.03125 -1.203125 L 3.65625 -3.296875 C 3.519531 -3.523438 3.375 -3.679688 3.21875 -3.765625 C 3.070312 -3.859375 2.910156 -3.90625 2.734375 -3.90625 L 2.65625 -3.90625 L 2.65625 0 L 0.96875 0 L 0.96875 -9.453125 L 3.90625 -9.453125 C 5.113281 -9.453125 6.023438 -9.203125 6.640625 -8.703125 C 7.253906 -8.203125 7.5625 -7.519531 7.5625 -6.65625 C 7.5625 -6.132812 7.445312 -5.679688 7.21875 -5.296875 C 6.988281 -4.921875 6.671875 -4.625 6.265625 -4.40625 C 5.867188 -4.1875 5.414062 -4.046875 4.90625 -3.984375 C 5.175781 -3.835938 5.421875 -3.597656 5.640625 -3.265625 L 6.390625 -2.15625 C 6.585938 -1.875 6.769531 -1.675781 6.9375 -1.5625 C 7.113281 -1.457031 7.332031 -1.40625 7.59375 -1.40625 C 7.90625 -1.40625 8.1875 -1.488281 8.4375 -1.65625 Z M 3.796875 -8.046875 L 2.65625 -8.046875 L 2.65625 -5.265625 L 3.71875 -5.265625 C 4.445312 -5.265625 4.984375 -5.375 5.328125 -5.59375 C 5.671875 -5.8125 5.84375 -6.164062 5.84375 -6.65625 C 5.84375 -7.582031 5.160156 -8.046875 3.796875 -8.046875 Z M 3.796875 -8.046875 "/></g></g></g><g fill="#ffffff" fill-opacity="1"><g transform="translate(235.244526, 281.420108)"><g><path d="M -0.140625 0 L 3.90625 -9.453125 L 5.359375 -9.453125 L 9.234375 0 L 7.484375 0 L 6.625 -2.15625 L 2.5 -2.15625 L 1.625 0 Z M 3.109375 -3.609375 L 6.078125 -3.609375 L 4.609375 -7.328125 Z M 3.109375 -3.609375 "/></g></g></g><g fill="#ffffff" fill-opacity="1"><g transform="translate(253.819865, 281.420108)"><g><path d="M 7.1875 -9.453125 L 8.859375 -9.453125 L 8.859375 0 L 7.328125 0 L 2.640625 -6.59375 L 2.640625 0 L 0.96875 0 L 0.96875 -9.453125 L 2.484375 -9.453125 L 7.1875 -2.859375 Z M 7.1875 -9.453125 "/></g></g></g></svg>