<svg xmlns="http://www.w3.org/2000/svg" enable-background="new 0 0 24 24" viewBox="0 0 24 24" id="Php">
  <path d="M16.823 10.154l-.514 2.726c1.253 0 2.329.185 2.629-1.402v.001C19.215 9.996 18.255 10.154 16.823 10.154zM6.067 10.154l-.514 2.726c1.286 0 2.333.161 2.629-1.402v.001C8.46 9.996 7.492 10.154 6.067 10.154z" fill="#e74528" class="color000000 svgShape"></path>
  <path d="M12,5.5C5.374,5.5,0,8.408,0,12c0,3.592,5.374,6.5,12,6.5s12-2.908,12-6.5C24,8.408,18.626,5.5,12,5.5z M5.355,13.911l-0.326,1.73H3.653H3.652l1.226-6.516H7.53c0.795,0,1.38,0.213,1.744,0.645c0.698,0.826,0.442,2.476-0.536,3.403C7.853,14.028,6.897,13.911,5.355,13.911z M12.765,13.905c0.578-3.067,0.686-3.321,0.476-3.554c-0.203-0.224-0.664-0.178-1.778-0.178l-0.705,3.731H9.39l1.226-6.511h1.369l-0.326,1.73c1.182,0,2.276-0.089,2.805,0.414c0.555,0.526,0.289,1.197-0.311,4.368H12.765z M19.496,13.174c-0.866,0.834-1.762,0.737-3.382,0.737l-0.326,1.73h-1.38l1.23-6.516h2.651c0.795,0,1.38,0.213,1.744,0.645C20.73,10.598,20.474,12.247,19.496,13.174z" fill="#e74528" class="color000000 svgShape"></path>
</svg>
